HIERARCHY
ROOT hips
{
	OFFSET -0.003675 0.299928 -0.021708
	CHANNELS 6 Xposition Yposition Zposition Xrotation Yrotation Zrotation
	JOINT LowerBack
	{
		OFFSET 0.000919 0.177588 0.009275
		CHANNELS 3 Xrotation Yrotation Zrotation
		JOINT spine
		{
			OFFSET 0.000919 0.177588 0.009275
			CHANNELS 3 Xrotation Yrotation Zrotation
			JOINT chest
			{
				OFFSET 0.000456 0.100015 0.004638
				CHANNELS 3 Xrotation Yrotation Zrotation
				JOINT neck
				{
					OFFSET 0.000456 0.100015 0.004638
					CHANNELS 3 Xrotation Yrotation Zrotation
					JOINT head
					{
						OFFSET 0.000924 0.155147 0.009274
						CHANNELS 6 Xposition Yposition Zposition Xrotation Yrotation Zrotation
						End Site
						{
							OFFSET 0.000000 0.153400 0.000000
						}
					}
				}
				JOINT shoulder.L
				{
					OFFSET 0.019937 0.078966 0.057518
					CHANNELS 6 Xposition Yposition Zposition Yrotation Xrotation Zrotation
					JOINT upper_arm.L
					{
						OFFSET 0.177024 -0.020465 -0.095062
						CHANNELS 6 Xposition Yposition Zposition Xrotation Yrotation Zrotation
						JOINT forearm.L
						{
							OFFSET 0.247100 -0.135500 -0.061800
							CHANNELS 3 Xrotation Yrotation Zrotation
							JOINT hand.L
							{
								OFFSET 0.217000 -0.143000 0.039300
								CHANNELS 3 Xrotation Yrotation Zrotation
								JOINT palm.01.L
								{
									OFFSET 0.021770 -0.038291 0.012954
									CHANNELS 6 Xposition Yposition Zposition Yrotation Xrotation Zrotation
									JOINT f_index.01.L
									{
										OFFSET 0.053215 -0.044137 0.008236
										CHANNELS 3 Xrotation Yrotation Zrotation
										JOINT f_index.02.L
										{
											OFFSET 0.036108 -0.024723 -0.010656
											CHANNELS 3 Xrotation Yrotation Zrotation
											JOINT f_index.03.L
											{
												OFFSET 0.021342 -0.014948 -0.010846
												CHANNELS 3 Xrotation Yrotation Zrotation
												End Site
												{
													OFFSET 0.015600 -0.009860 -0.013421
												}
											}
										}
									}
									JOINT thumb.01.L
									{
										OFFSET -0.009090 -0.002348 -0.024223
										CHANNELS 6 Xposition Yposition Zposition Xrotation Yrotation Zrotation
										JOINT thumb.02.L
										{
											OFFSET 0.019713 -0.035076 -0.011120
											CHANNELS 3 Xrotation Yrotation Zrotation
											JOINT thumb.03.L
											{
												OFFSET 0.024877 -0.021748 -0.005176
												CHANNELS 3 Xrotation Yrotation Zrotation
												End Site
												{
													OFFSET 0.016125 -0.013029 -0.001569
												}
											}
										}
									}
								}
								JOINT palm.02.L
								{
									OFFSET 0.032823 -0.025104 0.012281
									CHANNELS 6 Xposition Yposition Zposition Yrotation Xrotation Zrotation
									JOINT f_middle.01.L
									{
										OFFSET 0.055723 -0.038469 0.008037
										CHANNELS 3 Xrotation Yrotation Zrotation
										JOINT f_middle.02.L
										{
											OFFSET 0.038167 -0.027473 -0.015582
											CHANNELS 3 Xrotation Yrotation Zrotation
											JOINT f_middle.03.L
											{
												OFFSET 0.021707 -0.016587 -0.017037
												CHANNELS 3 Xrotation Yrotation Zrotation
												End Site
												{
													OFFSET 0.014112 -0.010584 -0.014294
												}
											}
										}
									}
								}
								JOINT palm.03.L
								{
									OFFSET 0.039230 -0.011402 0.008390
									CHANNELS 6 Xposition Yposition Zposition Yrotation Xrotation Zrotation
									JOINT f_ring.01.L
									{
										OFFSET 0.061796 -0.031470 0.007910
										CHANNELS 3 Xrotation Yrotation Zrotation
										JOINT f_ring.02.L
										{
											OFFSET 0.033092 -0.023401 -0.019127
											CHANNELS 3 Xrotation Yrotation Zrotation
											JOINT f_ring.03.L
											{
												OFFSET 0.021392 -0.015362 -0.017824
												CHANNELS 3 Xrotation Yrotation Zrotation
												End Site
												{
													OFFSET 0.008670 -0.007297 -0.014686
												}
											}
										}
									}
								}
								JOINT palm.04.L
								{
									OFFSET 0.043417 0.002450 0.002889
									CHANNELS 6 Xposition Yposition Zposition Yrotation Xrotation Zrotation
									JOINT f_pinky.01.L
									{
										OFFSET 0.069986 -0.026156 0.003627
										CHANNELS 3 Xrotation Yrotation Zrotation
										JOINT f_pinky.02.L
										{
											OFFSET 0.018520 -0.012813 -0.016429
											CHANNELS 3 Xrotation Yrotation Zrotation
											JOINT f_pinky.03.L
											{
												OFFSET 0.013822 -0.009796 -0.014947
												CHANNELS 3 Xrotation Yrotation Zrotation
												End Site
												{
													OFFSET 0.007238 -0.006103 -0.011657
												}
											}
										}
									}
								}
							}
						}
					}
				}
				JOINT shoulder.R
				{
					OFFSET -0.016662 0.078957 0.057696
					CHANNELS 6 Xposition Yposition Zposition Yrotation Xrotation Zrotation
					JOINT upper_arm.R
					{
						OFFSET -0.176972 -0.020537 -0.095144
						CHANNELS 6 Xposition Yposition Zposition Xrotation Yrotation Zrotation
						JOINT forearm.R
						{
							OFFSET -0.247100 -0.135500 -0.061800
							CHANNELS 3 Xrotation Yrotation Zrotation
							JOINT hand.R
							{
								OFFSET -0.217000 -0.143000 0.039300
								CHANNELS 3 Xrotation Yrotation Zrotation
								JOINT palm.01.R
								{
									OFFSET -0.021773 -0.038278 0.012988
									CHANNELS 6 Xposition Yposition Zposition Yrotation Xrotation Zrotation
									JOINT f_index.01.R
									{
										OFFSET -0.053212 -0.044139 0.008249
										CHANNELS 3 Xrotation Yrotation Zrotation
										JOINT f_index.02.R
										{
											OFFSET -0.036049 -0.024835 -0.010634
											CHANNELS 3 Xrotation Yrotation Zrotation
											JOINT f_index.03.R
											{
												OFFSET -0.021371 -0.014881 -0.010866
												CHANNELS 3 Xrotation Yrotation Zrotation
												End Site
												{
													OFFSET -0.015584 -0.009883 -0.013422
												}
											}
										}
									}
									JOINT thumb.01.R
									{
										OFFSET 0.009113 -0.002381 -0.024211
										CHANNELS 6 Xposition Yposition Zposition Xrotation Yrotation Zrotation
										JOINT thumb.02.R
										{
											OFFSET -0.019694 -0.035097 -0.011088
											CHANNELS 3 Xrotation Yrotation Zrotation
											JOINT thumb.03.R
											{
												OFFSET -0.024867 -0.021762 -0.005168
												CHANNELS 3 Xrotation Yrotation Zrotation
												End Site
												{
													OFFSET -0.016120 -0.013036 -0.001565
												}
											}
										}
									}
								}
								JOINT palm.02.R
								{
									OFFSET -0.032828 -0.025095 0.012286
									CHANNELS 6 Xposition Yposition Zposition Yrotation Xrotation Zrotation
									JOINT f_middle.01.R
									{
										OFFSET -0.055721 -0.038472 0.008040
										CHANNELS 3 Xrotation Yrotation Zrotation
										JOINT f_middle.02.R
										{
											OFFSET -0.038101 -0.027593 -0.015557
											CHANNELS 3 Xrotation Yrotation Zrotation
											JOINT f_middle.03.R
											{
												OFFSET -0.021730 -0.016530 -0.017054
												CHANNELS 3 Xrotation Yrotation Zrotation
												End Site
												{
													OFFSET -0.014096 -0.010608 -0.014293
												}
											}
										}
									}
								}
								JOINT palm.03.R
								{
									OFFSET -0.039192 -0.011488 0.008390
									CHANNELS 6 Xposition Yposition Zposition Yrotation Xrotation Zrotation
									JOINT f_ring.01.R
									{
										OFFSET -0.061839 -0.031387 0.007876
										CHANNELS 3 Xrotation Yrotation Zrotation
										JOINT f_ring.02.R
										{
											OFFSET -0.033068 -0.023437 -0.019125
											CHANNELS 3 Xrotation Yrotation Zrotation
											JOINT f_ring.03.R
											{
												OFFSET -0.021371 -0.015393 -0.017822
												CHANNELS 3 Xrotation Yrotation Zrotation
												End Site
												{
													OFFSET -0.008654 -0.007321 -0.014684
												}
											}
										}
									}
								}
								JOINT palm.04.R
								{
									OFFSET -0.043421 0.002443 0.002845
									CHANNELS 6 Xposition Yposition Zposition Yrotation Xrotation Zrotation
									JOINT f_pinky.01.R
									{
										OFFSET -0.069983 -0.026169 0.003599
										CHANNELS 3 Xrotation Yrotation Zrotation
										JOINT f_pinky.02.R
										{
											OFFSET -0.018501 -0.012842 -0.016428
											CHANNELS 3 Xrotation Yrotation Zrotation
											JOINT f_pinky.03.R
											{
												OFFSET -0.013806 -0.009821 -0.014946
												CHANNELS 3 Xrotation Yrotation Zrotation
												End Site
												{
													OFFSET -0.007226 -0.006121 -0.011655
												}
											}
										}
									}
								}
							}
						}
					}
				}
			}
		}
	}
	JOINT pelvis.L
	{
		OFFSET 0.000000 0.000000 0.000000
		CHANNELS 6 Xposition Yposition Zposition Xrotation Yrotation Zrotation
		JOINT thigh.L
		{
			OFFSET 0.101675 0.001054 -0.000000
			CHANNELS 3 Xrotation Yrotation Zrotation
			JOINT shin.L
			{
				OFFSET 0.000000 -0.534800 0.041000
				CHANNELS 3 Xrotation Yrotation Zrotation
				JOINT foot.L
				{
					OFFSET 0.000000 -0.452000 -0.044800
					CHANNELS 3 Xrotation Yrotation Zrotation
					JOINT toe.L
					{
						OFFSET -0.000000 -0.068500 0.109600
						CHANNELS 3 Xrotation Yrotation Zrotation
						End Site
						{
							OFFSET -0.000000 0.000000 0.067200
						}
					}
				}
				JOINT heel.L
				{
					OFFSET 0.000000 -0.452000 -0.044800
					CHANNELS 3 Xrotation Yrotation Zrotation
					JOINT heel.02.L
					{
						OFFSET -0.038000 -0.085200 0.016200
						CHANNELS 6 Xposition Yposition Zposition Xrotation Yrotation Zrotation
						End Site
						{
							OFFSET 0.080000 -0.000000 0.000000
						}
					}
				}
			}
		}
	}
	JOINT pelvis.R
	{
		OFFSET 0.000000 0.000000 0.000000
		CHANNELS 6 Xposition Yposition Zposition Xrotation Yrotation Zrotation
		JOINT thigh.R
		{
			OFFSET -0.094325 0.001054 0.000000
			CHANNELS 3 Xrotation Yrotation Zrotation
			JOINT shin.R
			{
				OFFSET 0.000000 -0.534800 0.041000
				CHANNELS 3 Xrotation Yrotation Zrotation
				JOINT foot.R
				{
					OFFSET 0.000000 -0.452000 -0.044800
					CHANNELS 3 Xrotation Yrotation Zrotation
					JOINT toe.R
					{
						OFFSET -0.000000 -0.068500 0.109600
						CHANNELS 3 Xrotation Yrotation Zrotation
						End Site
						{
							OFFSET -0.000000 0.000000 0.067200
						}
					}
				}
				JOINT heel.R
				{
					OFFSET 0.000000 -0.452000 -0.044800
					CHANNELS 3 Xrotation Yrotation Zrotation
					JOINT heel.02.R
					{
						OFFSET 0.038000 -0.085200 0.016200
						CHANNELS 6 Xposition Yposition Zposition Xrotation Yrotation Zrotation
						End Site
						{
							OFFSET -0.080000 0.000000 -0.000000
						}
					}
				}
			}
		}
	}
}
MOTION
Frames: 4
Frame Time: 0.041667
0.011776 0.275609 -0.021345 95.548008 -8.833907 86.581971 -0.000000 0.000000 0.000000 -0.000000 0.000000 0.000001 0.000000 0.000000 0.000000 -0.000001 0.000000 0.000001 0.000924 0.155147 0.009274 26.960444 -0.030739 -4.902139 0.019937 0.078966 0.057518 -3.027110 2.811103 38.359613 0.177025 -0.020465 -0.095062 -71.673109 2.136070 -44.271025 -8.195475 -10.193853 -7.659310 -0.000003 0.000002 0.000001 0.021770 -0.038291 0.012954 0.000002 0.000000 0.000001 0.000001 -0.000000 0.000001 0.000003 -0.000000 0.000008 -0.000002 0.000003 0.000000 -0.009090 -0.002348 -0.024223 0.000002 -0.000003 0.000000 0.000001 -0.000000 0.000001 0.000004 -0.000004 -0.000002 0.032823 -0.025104 0.012281 0.000002 0.000002 0.000002 0.000000 0.000003 -0.000007 -0.000002 -0.000001 0.000003 -0.000002 -0.000006 0.000004 0.039230 -0.011402 0.008390 0.000002 -0.000000 0.000004 0.000002 0.000000 0.000001 -0.000001 0.000007 0.000003 -0.000001 -0.000004 0.000002 0.043417 0.002450 0.002889 0.000002 -0.000000 -0.000002 -0.000001 -0.000003 -0.000000 0.000001 0.000004 -0.000001 -0.000002 -0.000001 0.000000 -0.016662 0.078957 0.057696 2.327633 4.231975 -43.822647 -0.176972 -0.020537 -0.095144 -81.021698 21.441909 38.039065 -3.247325 5.277738 1.227912 0.000000 0.000002 -0.000004 -0.021773 -0.038278 0.012988 0.000000 -0.000003 -0.000003 -0.000000 0.000005 -0.000004 -0.000000 -0.000000 -0.000003 -0.000003 0.000000 0.000004 0.009114 -0.002381 -0.024212 0.000001 -0.000002 -0.000001 0.000002 0.000002 -0.000003 0.000003 -0.000002 -0.000006 -0.032828 -0.025095 0.012286 0.000000 -0.000001 -0.000001 -0.000001 0.000003 0.000002 0.000002 -0.000002 -0.000000 -0.000002 0.000006 -0.000005 -0.039192 -0.011488 0.008390 -0.000000 -0.000001 -0.000000 -0.000002 0.000001 -0.000002 -0.000001 -0.000001 -0.000005 0.000000 0.000001 -0.000001 -0.043421 0.002443 0.002844 0.000001 0.000001 0.000002 -0.000002 0.000006 0.000001 0.000005 -0.000003 0.000002 -0.000001 -0.000002 0.000002 0.000000 0.000000 0.000000 -2.111531 0.813450 -9.996488 -129.633548 -0.710066 -6.304291 67.728286 1.739259 -17.837891 0.000000 -0.000001 0.000000 0.000002 -0.000001 0.000000 0.000002 -0.000001 0.000001 -0.038000 -0.085200 0.016200 -0.000006 0.000002 0.000001 -0.000000 0.000000 0.000000 -2.036978 0.801101 -8.763348 -127.912627 1.062792 10.314433 77.991622 1.379605 -14.060805 0.000000 -0.000001 0.000000 -0.000002 -0.000003 0.000000 0.000002 -0.000001 0.000003 0.038000 -0.085200 0.016200 -0.000001 0.000000 -0.000001 
0.010552 0.276267 -0.019902 99.286396 -8.830312 84.466716 0.000001 0.000000 -0.000001 -0.000000 -0.000001 -0.000001 0.000000 0.000000 -0.000001 -0.000000 0.000000 0.000000 0.000924 0.155148 0.009274 31.243464 -0.028059 -0.696158 0.019937 0.078966 0.057518 -6.660315 2.796511 38.673235 0.177025 -0.020465 -0.095062 -75.171102 4.336020 -44.951387 -9.232604 -10.972318 -9.262669 0.000001 0.000003 -0.000005 0.021770 -0.038291 0.012954 0.000000 0.000001 0.000001 0.000000 -0.000001 0.000003 -0.000003 -0.000000 0.000009 -0.000002 0.000001 -0.000000 -0.009090 -0.002348 -0.024223 0.000002 -0.000001 -0.000001 -0.000002 -0.000002 0.000001 -0.000002 0.000002 0.000004 0.032823 -0.025104 0.012281 -0.000002 0.000001 0.000002 -0.000001 0.000003 -0.000003 -0.000005 -0.000003 0.000001 -0.000002 0.000001 0.000001 0.039230 -0.011402 0.008390 0.000002 -0.000000 0.000004 0.000000 -0.000002 0.000001 0.000000 0.000008 -0.000000 0.000003 -0.000005 0.000002 0.043417 0.002450 0.002889 -0.000000 0.000001 -0.000002 -0.000001 -0.000004 -0.000002 0.000000 0.000003 0.000001 -0.000001 0.000003 -0.000004 -0.016662 0.078957 0.057696 -0.006480 4.291160 -42.352050 -0.176972 -0.020537 -0.095144 -83.587029 12.483653 40.308945 -6.146791 8.026002 8.299704 -0.000001 -0.000000 0.000002 -0.021773 -0.038278 0.012988 -0.000001 0.000000 -0.000007 0.000000 0.000001 0.000002 0.000000 0.000001 -0.000004 -0.000002 0.000000 0.000003 0.009114 -0.002381 -0.024211 0.000001 0.000000 -0.000001 -0.000002 -0.000003 -0.000005 -0.000002 -0.000001 -0.000003 -0.032828 -0.025095 0.012286 -0.000002 -0.000000 -0.000001 0.000004 0.000003 0.000006 -0.000002 -0.000001 -0.000002 0.000003 0.000007 -0.000002 -0.039192 -0.011488 0.008390 0.000001 0.000003 -0.000000 0.000000 0.000004 -0.000002 -0.000006 -0.000004 0.000002 -0.000002 -0.000003 0.000002 -0.043421 0.002443 0.002845 0.000001 0.000001 -0.000005 -0.000000 0.000007 -0.000003 -0.000004 -0.000002 0.000004 -0.000004 0.000001 0.000002 0.000000 0.000000 0.000000 -2.079535 0.852011 -10.477452 -130.401999 -0.769720 -7.079445 72.103111 1.866446 -19.192545 -0.000003 0.000000 -0.000001 -0.000006 0.000001 0.000004 0.000002 0.000000 0.000002 -0.038000 -0.085200 0.016200 -0.000000 -0.000001 0.000002 0.000000 0.000000 0.000000 -2.004454 0.838934 -9.244380 -126.213522 1.233936 12.442222 84.252644 1.730808 -17.748455 0.000002 0.000000 -0.000005 0.000003 0.000002 0.000000 0.000003 0.000002 -0.000003 0.038000 -0.085200 0.016200 -0.000001 0.000002 -0.000002 
0.012375 0.273206 -0.020804 97.580386 -10.751710 83.741288 0.000001 0.000001 0.000000 -0.000000 0.000001 -0.000000 -0.000000 -0.000000 -0.000000 0.000000 -0.000002 -0.000001 0.000924 0.155147 0.009274 33.794328 -0.028637 -2.633039 0.019937 0.078966 0.057518 -1.879242 2.236158 37.159077 0.177025 -0.020465 -0.095062 -69.446563 4.904619 -45.836775 -12.850484 -13.332068 -12.907821 -0.000002 -0.000000 -0.000000 0.021770 -0.038291 0.012954 -0.000000 -0.000000 -0.000002 -0.000002 -0.000001 -0.000000 -0.000000 0.000001 0.000003 0.000001 0.000003 -0.000000 -0.009090 -0.002348 -0.024223 -0.000000 -0.000001 -0.000003 0.000003 -0.000001 -0.000000 0.000001 0.000001 -0.000002 0.032823 -0.025104 0.012281 -0.000002 0.000003 0.000005 -0.000001 -0.000001 -0.000007 -0.000003 -0.000002 0.000003 -0.000001 0.000003 0.000003 0.039230 -0.011402 0.008390 -0.000001 -0.000000 0.000004 -0.000001 0.000000 -0.000000 0.000001 0.000004 -0.000002 -0.000001 -0.000001 0.000003 0.043417 0.002450 0.002889 -0.000001 0.000004 -0.000000 0.000000 0.000001 -0.000000 -0.000000 0.000001 -0.000002 -0.000001 -0.000002 -0.000001 -0.016662 0.078957 0.057696 2.544070 3.927731 -44.231205 -0.176972 -0.020537 -0.095144 -76.565902 13.948564 38.633616 -8.290528 10.530861 6.618252 -0.000002 0.000001 0.000002 -0.021773 -0.038278 0.012988 -0.000001 -0.000002 0.000000 0.000001 0.000007 -0.000001 -0.000000 -0.000000 -0.000003 -0.000001 -0.000002 -0.000001 0.009114 -0.002381 -0.024212 0.000003 0.000000 -0.000001 0.000001 0.000001 0.000000 -0.000001 -0.000004 -0.000003 -0.032828 -0.025095 0.012286 0.000002 0.000002 0.000001 -0.000001 -0.000001 -0.000001 -0.000000 -0.000003 -0.000002 -0.000003 0.000000 -0.000000 -0.039192 -0.011488 0.008390 0.000001 -0.000000 0.000001 0.000003 0.000007 -0.000005 0.000002 -0.000001 0.000002 0.000001 0.000003 -0.000003 -0.043421 0.002443 0.002844 0.000003 0.000002 0.000002 -0.000002 0.000006 -0.000001 -0.000002 -0.000005 0.000000 -0.000001 -0.000001 -0.000001 -0.000000 0.000000 0.000000 -2.182272 0.671441 -8.334870 -131.201104 -0.706930 -6.310361 72.093712 1.571369 -16.065498 -0.000002 -0.000001 0.000001 0.000002 -0.000000 0.000002 0.000003 -0.000001 0.000001 -0.038000 -0.085200 0.016200 -0.000001 0.000001 0.000001 -0.000000 0.000000 0.000000 -2.111041 0.661740 -7.101514 -126.554936 0.961103 8.855619 81.467266 1.115495 -11.327622 0.000000 -0.000002 0.000002 0.000001 -0.000000 0.000001 0.000002 -0.000000 -0.000000 0.038000 -0.085200 0.016200 0.000001 0.000001 0.000001 
0.013043 0.272922 -0.024781 88.417851 -11.505470 84.575521 -0.000002 -0.000000 0.000000 -0.000000 0.000000 0.000000 0.000001 -0.000000 0.000000 0.000001 -0.000000 0.000000 0.000924 0.155147 0.009274 24.547789 -0.031815 -7.001178 0.019937 0.078966 0.057518 6.775724 2.838730 33.842990 0.177024 -0.020465 -0.095062 -54.211597 5.097085 -47.297964 -19.769564 -17.678867 -16.587406 -0.000000 -0.000000 -0.000004 0.021770 -0.038291 0.012954 0.000002 0.000001 0.000001 -0.000001 -0.000000 0.000003 0.000003 -0.000005 -0.000001 -0.000000 0.000003 -0.000005 -0.009090 -0.002348 -0.024223 -0.000001 -0.000001 0.000006 0.000001 0.000000 0.000001 -0.000003 0.000001 -0.000002 0.032823 -0.025104 0.012281 -0.000000 0.000001 0.000004 -0.000003 0.000002 -0.000002 -0.000003 0.000001 -0.000002 -0.000003 0.000001 0.000001 0.039230 -0.011402 0.008390 0.000001 -0.000000 0.000008 -0.000001 0.000002 -0.000000 -0.000001 0.000006 0.000003 0.000002 -0.000007 0.000003 0.043417 0.002450 0.002889 0.000001 0.000001 0.000003 0.000000 -0.000004 -0.000002 0.000002 0.000002 -0.000001 -0.000001 -0.000006 -0.000003 -0.016662 0.078956 0.057696 7.526407 4.574195 -47.169143 -0.176972 -0.020537 -0.095144 -67.335666 26.748243 31.686183 -3.659426 7.137234 -7.250621 -0.000001 0.000001 -0.000002 -0.021773 -0.038278 0.012988 -0.000001 -0.000001 -0.000003 -0.000002 0.000001 -0.000005 -0.000001 -0.000000 -0.000001 0.000000 0.000002 0.000007 0.009113 -0.002381 -0.024212 0.000001 -0.000003 0.000000 -0.000000 -0.000000 0.000000 0.000001 -0.000000 -0.000003 -0.032828 -0.025095 0.012286 0.000001 0.000000 0.000004 0.000001 0.000002 -0.000001 0.000001 0.000001 -0.000003 -0.000004 0.000003 -0.000006 -0.039192 -0.011488 0.008390 0.000000 0.000001 0.000003 0.000002 0.000003 -0.000002 0.000001 0.000006 0.000000 0.000003 0.000002 -0.000004 -0.043421 0.002443 0.002845 0.000000 -0.000000 0.000005 -0.000004 0.000003 -0.000001 -0.000003 -0.000007 0.000000 -0.000003 0.000000 0.000006 0.000000 0.000000 0.000000 -2.124140 0.840642 -10.269311 -128.240080 -0.880095 -8.484772 70.307317 1.480825 -15.116387 -0.000002 0.000000 -0.000001 0.000001 -0.000000 0.000000 0.000000 -0.000000 -0.000000 -0.038000 -0.085200 0.016200 0.000004 0.000000 -0.000000 -0.000000 0.000000 0.000000 -2.048228 0.827714 -9.036233 -128.767781 0.874309 7.890878 81.578946 1.213460 -12.337973 -0.000003 0.000001 -0.000002 -0.000000 0.000002 0.000001 0.000003 -0.000002 0.000002 0.038000 -0.085200 0.016200 0.000002 -0.000000 -0.000001 
